:version 1.10
:name ASF
:units
  mass 1
  length 1
  angle deg
:documentation
  ASF file generated by Kaydara
:root
  axis xyz
  order  tx ty tz rx ry rz
  position 0 0 0
  orientation 0 0 0
:bonedata
  begin
    id 1
    name RightUpLegDummy
    direction -0.718183 -0.695806 0.00816078
    length 4.904
    axis 0 0 0 xyz
  end
  begin
    id 2
    name RightUpLeg
    direction 3.53989e-006 -0.995788 0.0916897
    length 17.4976
    axis -3.49089 -0.000906621 0.000287158 xyz
    dof rx ry rz
  end
  begin
    id 3
    name RightLeg
    direction 0.00371093 -0.995096 -0.0988418
    length 16.5821
    axis 3.68512 0.0193738 -0.131023 xyz
    dof rx ry rz
  end
  begin
    id 4
    name RightFoot
    direction 0.000791514 -0.46099 0.887405
    length 3.77069
    axis 4.84075e-005 -0.120479 -0.188788 xyz
    dof rx ry rz
  end
  begin
    id 5
    name RightToes
    direction 0.00124746 -0.014064 0.9999
    length 3.85082
    axis 0.00048216 0.542163 -0.142577 xyz
    dof rx ry rz
  end
  begin
    id 6
    name SpineDummy
    direction 8.36599e-015 1 5.97571e-016
    length 4.6813
    axis 0 0 0 xyz
  end
  begin
    id 7
    name Spine
    direction -4.63632e-008 0.999988 0.00495137
    length 10.1015
    axis -0.00138897 0.000121419 3.25764e-006 xyz
    dof rx ry rz
  end
  begin
    id 8
    name Spine1
    direction 0 0 0
    length 0
    axis -0.00138896 0.000121452 2.39764e-006 xyz
    dof rx ry rz
  end
  begin
    id 9
    name HEadDummy
    direction -3.91456e-008 0.999999 0.00127422
    length 3.43865
    axis -0.00138896 0.000121452 2.39764e-006 xyz
  end
  begin
    id 10
    name HEad
    direction -0.0222688 0.980941 0.193023
    length 5.12695
    axis -0.00138895 0.000121452 2.39764e-006 xyz
    dof rx ry rz
  end
  begin
    id 11
    name LeftShoulder1Dummy
    direction 0.998891 -0.0402508 -0.0244456
    length 3.5433
    axis -0.00138896 0.000121452 2.39764e-006 xyz
  end
  begin
    id 12
    name LeftShoulder1
    direction 0.99951 -0.000327743 0.0313091
    length 4.05031
    axis -0.00138896 0.000121452 2.39764e-006 xyz
    dof rx ry rz
  end
  begin
    id 13
    name LeftArm
    direction 0.998561 -0.00100054 -0.0536182
    length 10.3537
    axis -23.1894 0.134784 0.96751 xyz
    dof rx ry rz
  end
  begin
    id 14
    name LeftForeArm
    direction 0.998903 0.00866434 0.046012
    length 8.70632
    axis -9.91835 -0.06569 -0.177792 xyz
    dof rx ry rz
  end
  begin
    id 15
    name LeftHand
    direction 0.992938 -0.0411636 0.11126
    length 5.32135
    axis -0.00960227 -0.00340091 0.185174 xyz
    dof rx ry rz
  end
  begin
    id 16
    name RightShoulderDummy
    direction -0.998891 -0.0402509 -0.0244414
    length 3.5433
    axis -0.00138896 0.000121452 2.39764e-006 xyz
  end
  begin
    id 17
    name RightShoulder
    direction -0.99951 -0.000327827 0.0313133
    length 4.05031
    axis 0.215806 0.000203644 -0.00680151 xyz
    dof rx ry rz
  end
  begin
    id 18
    name RightArm
    direction -0.998573 -0.000999583 -0.053403
    length 10.3947
    axis -23.2009 -0.134239 -0.9641 xyz
    dof rx ry rz
  end
  begin
    id 19
    name RightForeArm
    direction -0.998898 0.00868026 0.0461306
    length 8.68355
    axis -9.92322 0.0658061 0.178869 xyz
    dof rx ry rz
  end
  begin
    id 20
    name RightHand
    direction -0.992843 -0.0414603 0.112003
    length 5.28593
    axis -0.00960634 0.00330671 -0.185226 xyz
    dof rx ry rz
  end
  begin
    id 21
    name LeftUpLegDummy
    direction 0.718183 -0.695806 0.00816078
    length 4.904
    axis 0 0 0 xyz
  end
  begin
    id 22
    name LeftUpLeg
    direction -6.8115e-006 -0.995793 0.0916336
    length 17.4976
    axis -3.48766 0.00143441 -0.000523914 xyz
    dof rx ry rz
  end
  begin
    id 23
    name LeftLeg
    direction -0.00601357 -0.995091 -0.0987824
    length 16.5821
    axis 3.68177 -0.00654038 -0.00028478 xyz
    dof rx ry rz
  end
  begin
    id 24
    name LeftFoot
    direction -0.00417578 -0.460984 0.887399
    length 3.77069
    axis 1.87232e-006 4.66002e-005 -8.1837e-006 xyz
    dof rx ry rz
  end
  begin
    id 25
    name LeftToes
    direction 0.00818058 -0.00485161 0.999955
    length 3.85048
    axis 1.06246e-005 4.65855e-005 -8.18502e-006 xyz
    dof rx ry rz
  end
:hierarchy
  begin
    root RightUpLegDummy SpineDummy LeftUpLegDummy
    RightUpLegDummy RightUpLeg
    RightUpLeg RightLeg
    RightLeg RightFoot
    RightFoot RightToes
    SpineDummy Spine
    Spine Spine1
    Spine1 HEadDummy LeftShoulder1Dummy RightShoulderDummy
    HEadDummy HEad
    LeftShoulder1Dummy LeftShoulder1
    LeftShoulder1 LeftArm
    LeftArm LeftForeArm
    LeftForeArm LeftHand
    RightShoulderDummy RightShoulder
    RightShoulder RightArm
    RightArm RightForeArm
    RightForeArm RightHand
    LeftUpLegDummy LeftUpLeg
    LeftUpLeg LeftLeg
    LeftLeg LeftFoot
    LeftFoot LeftToes
  end

:SAMPLES-PER-SECOND 24
:FULLY-SPECIFIED
:DEGREES
1
root  10.4108 38.8108 14.5225 3.44409 -63.0533 -1.50975
RightUpLeg  -7.28913 -0.604715 -5.14212
RightLeg  23.6493 -11.095 -5.48918
RightFoot  -16.572 0.0880616 4.38576
RightToes  -2.08645e-008 3.77894e-005 6.81332e-007
Spine  -0.728875 1.15379 10.7618
Spine1  13.9297 2.59203 -5.19044
HEad  -29.7536 54.7861 -26.3968
LeftShoulder1  6.95693 -12.5198 -37.3381
LeftArm  -8.54236 17.4618 -24.9619
LeftForeArm  133.575 -79.1413 -119.854
LeftHand  -0.4796 -2.19293 7.54296
RightShoulder  4.03681 6.80414 33.2763
RightArm  3.93877 -25.9665 32.1763
RightForeArm  93.109 80.4147 74.1305
RightHand  0.528614 7.19926 4.49436
LeftUpLeg  -13.0171 1.89982 14.4776
LeftLeg  17.5881 5.11683 2.15003
LeftFoot  -2.04747 1.50163 -18.1956
LeftToes  1.24767e-006 1.47042e-008 1.32732e-009
2
root  10.348 38.7905 14.4553 3.48608 -63.8732 -1.70737
RightUpLeg  -7.43702 -0.335613 -4.95879
RightLeg  23.9821 -10.7526 -5.40671
RightFoot  -16.6372 0.0784689 4.13344
RightToes  -2.08645e-008 3.77894e-005 6.81332e-007
Spine  1.35789 0.453039 10.7376
Spine1  12.2211 1.8563 -4.77089
HEad  -30.9259 54.5014 -27.7107
LeftShoulder1  6.92337 -12.4842 -37.2285
LeftArm  -8.62841 16.663 -25.3132
LeftForeArm  134.598 -79.06 -120.698
LeftHand  -0.505127 -2.36154 7.77418
RightShoulder  4.02908 6.81831 33.1476
RightArm  3.57932 -26.8329 30.1312
RightForeArm  90.3158 80.2755 72.0326
RightHand  0.347292 6.58868 3.0092
LeftUpLeg  -15.5903 4.55139 14.6064
LeftLeg  22.7559 4.54262 2.41138
LeftFoot  -0.435538 1.79538 -18.6371
LeftToes  1.24767e-006 1.47042e-008 1.32732e-009
3
root  10.2752 38.793 14.4942 2.93604 -64.3799 -1.2132
RightUpLeg  -7.33175 -0.694341 -5.32025
RightLeg  23.9975 -9.933 -5.02235
RightFoot  -16.7576 0.0852695 4.20216
RightToes  -2.08645e-008 3.77894e-005 6.81332e-007
Spine  3.35376 0.23854 10.1663
Spine1  10.5199 1.54574 -4.06939
HEad  -31.8919 53.536 -28.5105
LeftShoulder1  6.88911 -12.4635 -37.0751
LeftArm  -7.79318 15.7308 -26.05
LeftForeArm  135.256 -79.0477 -120.987
LeftHand  -0.488022 -2.50566 7.39104
RightShoulder  4.00818 6.79448 33.0353
RightArm  2.95557 -27.9215 27.8394
RightForeArm  86.8191 80.0801 69.5007
RightHand  0.265204 6.40976 2.2607
LeftUpLeg  -18.0849 8.63569 13.9072
LeftLeg  26.925 4.58834 2.86422
LeftFoot  1.75735 2.18531 -18.9782
LeftToes  1.24767e-006 1.47042e-008 1.32732e-009
4
root  10.1657 38.8215 14.6562 2.3457 -64.5444 -0.453278
RightUpLeg  -7.05489 -1.15739 -5.93525
RightLeg  23.6331 -9.40915 -4.69914
RightFoot  -16.7111 0.0972761 4.487
RightToes  -2.08645e-008 3.77894e-005 6.81332e-007
Spine  4.6595 0.252634 9.79383
Spine1  9.17853 1.56795 -4.00192
HEad  -32.4122 52.5187 -28.8881
LeftShoulder1  6.87575 -12.4703 -36.9763
LeftArm  -6.78339 15.1764 -26.6107
LeftForeArm  137.741 -78.9515 -122.346
LeftHand  -0.442538 -2.69062 6.5812
RightShoulder  3.98328 6.78006 32.8477
RightArm  2.29908 -28.7445 25.9379
RightForeArm  83.279 79.8645 67.3016
RightHand  0.260375 6.1056 2.28741
LeftUpLeg  -20.0231 13.3797 12.6321
LeftLeg  28.6682 5.61292 3.65325
LeftFoot  2.39713 2.2561 -18.7037
LeftToes  1.24767e-006 1.47042e-008 1.32732e-009
5
root  10.0182 38.8712 14.9449 2.12109 -64.1604 0.000488281
RightUpLeg  -6.40455 -1.50114 -6.4699
RightLeg  22.8984 -9.69676 -4.68126
RightFoot  -16.3454 0.0797498 4.36048
RightToes  -2.08645e-008 3.77894e-005 6.81332e-007
Spine  5.38019 0.24111 9.80077
Spine1  8.11199 1.64382 -4.50683
HEad  -32.4125 51.5787 -28.7956
LeftShoulder1  6.89487 -12.5127 -36.9813
LeftArm  -6.09883 15.3009 -26.7089
LeftForeArm  139.878 -78.8594 -123.534
LeftHand  -0.401601 -2.96413 5.81612
RightShoulder  3.95461 6.7961 32.5081
RightArm  2.49683 -28.689 24.9006
RightForeArm  78.2845 79.485 63.2239
RightHand  0.151389 5.49131 1.29128
LeftUpLeg  -21.4067 17.7385 11.1897
LeftLeg  27.6305 7.36302 4.49624
LeftFoot  1.82614 2.0066 -17.3627
LeftToes  1.24767e-006 1.47042e-008 1.32732e-009
6
root  9.85407 38.8615 15.3717 2.3147 -63.2296 -0.0715332
RightUpLeg  -5.46099 -2.2417 -6.96355
RightLeg  22.2413 -9.81032 -4.59751
RightFoot  -16.3842 0.111109 5.04154
RightToes  -2.08645e-008 3.77894e-005 6.81332e-007
Spine  5.85682 0.352704 9.97422
Spine1  7.16336 1.79079 -4.86035
HEad  -32.1198 50.278 -28.2964
LeftShoulder1  6.91406 -12.5631 -36.966
LeftArm  -5.54391 15.7292 -26.5286
LeftForeArm  137.796 -79.1155 -121.397
LeftHand  -0.386869 -3.38674 5.369
RightShoulder  3.90116 6.78526 32.0268
RightArm  3.74865 -27.3545 25.0023
RightForeArm  73.3493 78.9756 58.2691
RightHand  0.00954211 5.17109 -0.202998
LeftUpLeg  -22.6341 21.6925 9.65235
LeftLeg  24.6231 9.0054 4.80546
LeftFoot  1.70586 1.79048 -15.6691
LeftToes  1.24767e-006 1.47042e-008 1.32732e-009
7
root  9.68346 38.7763 15.9257 3.31299 -61.9484 -0.814987
RightUpLeg  -4.67471 -3.51915 -7.31031
RightLeg  21.8243 -9.87519 -4.53993
RightFoot  -16.6593 0.173428 6.16279
RightToes  -2.08645e-008 3.77894e-005 6.81332e-007
Spine  5.89153 0.680288 10.4576
Spine1  6.37851 2.14006 -5.27232
HEad  -32.0658 48.7451 -27.8472
LeftShoulder1  6.8687 -12.5435 -36.7425
LeftArm  -5.19953 16.2809 -26.2001
LeftForeArm  131.897 -79.6463 -115.816
LeftHand  -0.395913 -3.60946 5.36623
RightShoulder  3.85892 6.77755 31.6416
RightArm  5.98526 -24.153 26.3449
RightForeArm  68.6905 78.3795 53.748
RightHand  -0.0450205 5.12965 -0.803951
LeftUpLeg  -24.2698 26.4856 7.56305
LeftLeg  20.2045 9.47986 4.16353
LeftFoot  2.12559 1.7489 -14.855
LeftToes  1.24767e-006 1.47042e-008 1.32732e-009
8
root  9.52356 38.6719 16.5761 5.01685 -60.6129 -2.22905
RightUpLeg  -3.87422 -4.57934 -7.34944
RightLeg  21.2941 -10.4038 -4.65297
RightFoot  -16.5399 0.17967 6.42773
RightToes  -2.08645e-008 3.77894e-005 6.81332e-007
Spine  6.01973 1.19343 11.3314
Spine1  5.2913 2.77741 -6.15255
HEad  -32.4451 47.3086 -27.6294
LeftShoulder1  6.84471 -12.5367 -36.615
LeftArm  -5.25328 17.2215 -25.3351
LeftForeArm  125.05 -80.0588 -109.647
LeftHand  -0.411939 -3.40371 5.69033
RightShoulder  3.88822 6.85918 31.6278
RightArm  9.25836 -18.6312 28.9997
RightForeArm  62.3631 77.3594 47.8423
RightHand  -0.0716173 5.17113 -1.09478
LeftUpLeg  -25.9952 31.5564 5.45387
LeftLeg  14.8011 11.0084 2.61301
LeftFoot  2.49835 1.73822 -14.391
LeftToes  1.24767e-006 1.47042e-008 1.32732e-009
9
root  9.36607 38.5177 17.3308 6.67114 -58.8741 -3.92947
RightUpLeg  -2.44985 -5.5342 -7.29518
RightLeg  20.5479 -10.7455 -4.634
RightFoot  -16.731 0.260809 7.91399
RightToes  -2.08645e-008 3.77894e-005 6.81332e-007
Spine  6.61838 1.91396 12.2298
Spine1  3.90528 3.66861 -7.11911
HEad  -33.0733 45.7189 -27.3842
LeftShoulder1  6.96581 -12.6882 -36.9519
LeftArm  -5.3857 18.2178 -23.9047
LeftForeArm  117.209 -80.3389 -102.837
LeftHand  -0.435008 -3.21928 6.11014
RightShoulder  3.97942 6.97538 32.0844
RightArm  13.1482 -11.2242 32.8716
RightForeArm  56.9754 75.9673 41.4368
RightHand  -0.137081 5.30467 -1.79782
LeftUpLeg  -25.3889 28.5332 8.11389
LeftLeg  10.288 23.8918 -0.0265565
LeftFoot  1.80549 1.42998 -12.4603
LeftToes  1.24767e-006 1.47042e-008 1.32732e-009
